# Blender v2.79 (sub 0) OBJ File: ''
# www.blender.org
mtllib tnt.mtl
o Cube.001
v 1.001866 2.012760 -0.988929
v -0.998133 2.014207 -0.987197
v -0.996402 2.012706 1.012801
v 1.003596 2.011259 1.011070
v 1.000418 0.012761 -0.990429
v 1.002149 0.011260 1.009569
v -0.997850 0.012707 1.011301
v -0.999581 0.014208 -0.988698
vt 0.999900 0.999899
vt 0.000100 0.999900
vt 0.000100 0.000100
vt 0.999899 0.000100
vt 0.999900 0.000100
vt 0.000100 0.999900
vt 0.000100 0.000100
vt 0.999900 0.000100
vt 0.999900 0.999900
vt 0.000100 0.999900
vt 0.000100 0.000100
vt 1.000000 0.000000
vt 1.000000 1.000000
vt 0.000000 1.000000
vt 0.000000 0.000000
vt 0.001914 0.996073
vt -0.000090 -0.000048
vt 0.999990 -0.000008
vt 0.999929 0.999952
vt 0.999900 0.999900
vt 0.000100 0.999900
vt 0.999900 0.000100
vn 0.0007 1.0000 0.0008
vn 1.0000 -0.0007 -0.0009
vn 0.0009 -0.0008 1.0000
vn -1.0000 0.0007 0.0009
vn -0.0009 0.0008 -1.0000
vn -0.0007 -1.0000 -0.0008
usemtl top.001
s 1
f 1/1/1 2/2/1 3/3/1 4/4/1
usemtl top_tnt_side.png
f 5/5/2 1/1/2 4/6/2 6/7/2
f 6/8/3 4/9/3 3/10/3 7/11/3
f 7/12/4 3/13/4 2/14/4 8/15/4
f 1/16/5 5/17/5 8/18/5 2/19/5
usemtl top_tnt_bottom.png
f 5/20/6 6/21/6 7/11/6 8/22/6
