# Blender v2.79 (sub 0) OBJ File: 'Minecraft_Item_Rig.blend'
# www.blender.org
mtllib GunPowder.mtl
o Gunpowder_Plane.349
v -0.088454 0.404966 0.022114
v -0.088454 0.449193 0.022114
v -0.044227 0.493420 0.022114
v -0.044227 0.449193 0.022114
v -0.132681 0.404966 0.022114
v -0.132681 0.360739 0.022113
v -0.176908 0.360739 0.022113
v -0.176908 0.316512 0.022114
v -0.221135 0.316512 0.022114
v -0.221135 0.272285 0.022114
v -0.265362 0.272285 0.022114
v -0.265362 0.139604 0.022114
v -0.221135 0.139604 0.022114
v -0.221135 0.095377 0.022113
v -0.176908 0.095377 0.022113
v -0.176908 0.051150 0.022114
v -0.088454 0.051150 0.022114
v -0.088454 0.006923 0.022113
v 0.088454 0.006923 0.022113
v 0.088454 0.051150 0.022114
v 0.176908 0.051150 0.022114
v 0.176908 0.095377 0.022113
v 0.221135 0.095377 0.022113
v 0.221135 0.139604 0.022114
v 0.265362 0.139604 0.022114
v 0.265362 0.272285 0.022114
v 0.221135 0.272285 0.022114
v 0.221135 0.316512 0.022114
v 0.176908 0.316512 0.022114
v 0.176908 0.360739 0.022114
v 0.132681 0.360739 0.022114
v 0.132681 0.404966 0.022114
v 0.088454 0.404966 0.022114
v 0.088454 0.449193 0.022114
v 0.044227 0.449193 0.022114
v 0.044227 0.493420 0.022114
v -0.088454 0.404966 -0.022114
v -0.088454 0.449193 -0.022114
v -0.044227 0.493420 -0.022114
v -0.044227 0.449193 -0.022114
v -0.132681 0.404966 -0.022114
v -0.132681 0.360739 -0.022114
v -0.176908 0.360739 -0.022114
v -0.176908 0.316512 -0.022114
v -0.221135 0.316512 -0.022114
v -0.221135 0.272285 -0.022114
v -0.265362 0.272285 -0.022114
v -0.265362 0.139604 -0.022114
v -0.221135 0.139604 -0.022114
v -0.221135 0.095377 -0.022114
v -0.176908 0.095377 -0.022114
v -0.176908 0.051150 -0.022114
v -0.088454 0.051150 -0.022114
v -0.088454 0.006923 -0.022114
v 0.088454 0.006923 -0.022114
v 0.088454 0.051150 -0.022114
v 0.176908 0.051150 -0.022114
v 0.176908 0.095377 -0.022114
v 0.221135 0.095377 -0.022114
v 0.221135 0.139604 -0.022114
v 0.265362 0.139604 -0.022114
v 0.265362 0.272285 -0.022114
v 0.221135 0.272285 -0.022114
v 0.221135 0.316512 -0.022114
v 0.176908 0.316512 -0.022114
v 0.176908 0.360739 -0.022114
v 0.132681 0.360739 -0.022114
v 0.132681 0.404966 -0.022114
v 0.088454 0.404966 -0.022114
v 0.088454 0.449193 -0.022114
v 0.044227 0.449193 -0.022114
v 0.044227 0.493420 -0.022114
vt 0.523438 0.855469
vt 0.519531 0.855469
vt 0.519531 0.851562
vt 0.515625 0.851562
vt 0.515625 0.847656
vt 0.511719 0.847656
vt 0.511719 0.843750
vt 0.507812 0.843750
vt 0.507812 0.832031
vt 0.511719 0.832031
vt 0.511719 0.828125
vt 0.515625 0.828125
vt 0.515625 0.824219
vt 0.523438 0.824219
vt 0.523438 0.820312
vt 0.539062 0.820312
vt 0.539062 0.824219
vt 0.546875 0.824219
vt 0.546875 0.828125
vt 0.550781 0.828125
vt 0.550781 0.832031
vt 0.554688 0.832031
vt 0.554688 0.843750
vt 0.550781 0.843750
vt 0.550781 0.847656
vt 0.546875 0.847656
vt 0.546875 0.851562
vt 0.542969 0.851562
vt 0.542969 0.855469
vt 0.539062 0.855469
vt 0.539062 0.859375
vt 0.535156 0.859375
vt 0.535156 0.863281
vt 0.527344 0.863281
vt 0.527344 0.859375
vt 0.523438 0.859375
vt 0.523438 0.855469
vt 0.523438 0.859375
vt 0.527344 0.859375
vt 0.527344 0.863281
vt 0.535156 0.863281
vt 0.535156 0.859375
vt 0.539062 0.859375
vt 0.539062 0.855469
vt 0.542969 0.855469
vt 0.542969 0.851562
vt 0.546875 0.851562
vt 0.546875 0.847656
vt 0.550781 0.847656
vt 0.550781 0.843750
vt 0.554688 0.843750
vt 0.554688 0.832031
vt 0.550781 0.832031
vt 0.550781 0.828125
vt 0.546875 0.828125
vt 0.546875 0.824219
vt 0.539062 0.824219
vt 0.539062 0.820312
vt 0.523438 0.820312
vt 0.523438 0.824219
vt 0.515625 0.824219
vt 0.515625 0.828125
vt 0.511719 0.828125
vt 0.511719 0.832031
vt 0.507812 0.832031
vt 0.507812 0.843750
vt 0.511719 0.843750
vt 0.511719 0.847656
vt 0.515625 0.847656
vt 0.515625 0.851562
vt 0.519531 0.851562
vt 0.519531 0.855469
vt 0.533249 0.863281
vt 0.533249 0.859375
vt 0.533249 0.859375
vt 0.533249 0.863281
vt 0.519531 0.853561
vt 0.523438 0.853561
vt 0.523438 0.853561
vt 0.519531 0.853561
vt 0.539062 0.822220
vt 0.523438 0.822220
vt 0.523438 0.822220
vt 0.539062 0.822220
vt 0.511719 0.845749
vt 0.515625 0.845749
vt 0.515625 0.845749
vt 0.511719 0.845749
vt 0.552780 0.843750
vt 0.552780 0.832031
vt 0.552780 0.832031
vt 0.552780 0.843750
vt 0.539062 0.853561
vt 0.542969 0.853561
vt 0.542969 0.853561
vt 0.539062 0.853561
vt 0.517532 0.824219
vt 0.517532 0.828125
vt 0.517532 0.828125
vt 0.517532 0.824219
vt 0.521439 0.851562
vt 0.521439 0.855469
vt 0.521439 0.855469
vt 0.521439 0.851562
vt 0.550781 0.830032
vt 0.546875 0.830032
vt 0.546875 0.830032
vt 0.550781 0.830032
vt 0.511719 0.833939
vt 0.507812 0.833939
vt 0.507812 0.833939
vt 0.511719 0.833939
vt 0.544968 0.851562
vt 0.544968 0.847656
vt 0.544968 0.847656
vt 0.544968 0.851562
vt 0.527344 0.861374
vt 0.535156 0.861374
vt 0.535156 0.861374
vt 0.527344 0.861374
vt 0.537155 0.824219
vt 0.537155 0.820312
vt 0.537155 0.820312
vt 0.537155 0.824219
vt 0.525345 0.855469
vt 0.525345 0.859375
vt 0.525345 0.859375
vt 0.525345 0.855469
vt 0.513626 0.843750
vt 0.513626 0.847656
vt 0.513626 0.847656
vt 0.513626 0.843750
vt 0.550781 0.841843
vt 0.554688 0.841843
vt 0.554688 0.841843
vt 0.550781 0.841843
vt 0.523438 0.826126
vt 0.515625 0.826126
vt 0.515625 0.826126
vt 0.523438 0.826126
vt 0.537155 0.859375
vt 0.537155 0.855469
vt 0.537155 0.855469
vt 0.537155 0.859375
vt 0.515625 0.849655
vt 0.519531 0.849655
vt 0.519531 0.849655
vt 0.515625 0.849655
vt 0.548874 0.832031
vt 0.548874 0.828125
vt 0.548874 0.828125
vt 0.548874 0.832031
vt 0.542969 0.849655
vt 0.546875 0.849655
vt 0.546875 0.849655
vt 0.542969 0.849655
vt 0.513626 0.828125
vt 0.513626 0.832031
vt 0.513626 0.832031
vt 0.513626 0.828125
vt 0.523438 0.857468
vt 0.527344 0.857468
vt 0.527344 0.857468
vt 0.523438 0.857468
vt 0.546875 0.826126
vt 0.539062 0.826126
vt 0.539062 0.826126
vt 0.546875 0.826126
vt 0.507812 0.841843
vt 0.511719 0.841843
vt 0.511719 0.841843
vt 0.507812 0.841843
vt 0.548874 0.847656
vt 0.548874 0.843750
vt 0.548874 0.843750
vt 0.548874 0.847656
vt 0.525345 0.820312
vt 0.525345 0.824219
vt 0.525345 0.824219
vt 0.525345 0.820312
vt 0.535156 0.857468
vt 0.539062 0.857468
vt 0.539062 0.857468
vt 0.535156 0.857468
vt 0.517532 0.847656
vt 0.517532 0.851562
vt 0.517532 0.851562
vt 0.517532 0.847656
vt 0.554688 0.833939
vt 0.550781 0.833939
vt 0.550781 0.833939
vt 0.554688 0.833939
vt 0.515625 0.830032
vt 0.511719 0.830032
vt 0.511719 0.830032
vt 0.515625 0.830032
vt 0.541061 0.855469
vt 0.541061 0.851562
vt 0.541061 0.851562
vt 0.541061 0.855469
vt 0.544968 0.828125
vt 0.544968 0.824219
vt 0.544968 0.824219
vt 0.544968 0.828125
vt 0.529251 0.859375
vt 0.529251 0.863281
vt 0.529251 0.863281
vt 0.529251 0.859375
vt 0.546875 0.845749
vt 0.550781 0.845749
vt 0.550781 0.845749
vt 0.546875 0.845749
vt 0.509720 0.832031
vt 0.509720 0.843750
vt 0.509720 0.843750
vt 0.509720 0.832031
vn -0.0000 -0.0000 1.0000
vn -0.0000 0.0000 -1.0000
vn 1.0000 0.0000 0.0000
vn 0.0000 1.0000 0.0000
vn 0.0000 -1.0000 -0.0000
vn -1.0000 0.0000 0.0000
usemtl Items.001
s off
f 1/1/1 5/2/1 6/3/1 7/4/1 8/5/1 9/6/1 10/7/1 11/8/1 12/9/1 13/10/1 14/11/1 15/12/1 16/13/1 17/14/1 18/15/1 19/16/1 20/17/1 21/18/1 22/19/1 23/20/1 24/21/1 25/22/1 26/23/1 27/24/1 28/25/1 29/26/1 30/27/1 31/28/1 32/29/1 33/30/1 34/31/1 35/32/1 36/33/1 3/34/1 4/35/1 2/36/1
f 37/37/2 38/38/2 40/39/2 39/40/2 72/41/2 71/42/2 70/43/2 69/44/2 68/45/2 67/46/2 66/47/2 65/48/2 64/49/2 63/50/2 62/51/2 61/52/2 60/53/2 59/54/2 58/55/2 57/56/2 56/57/2 55/58/2 54/59/2 53/60/2 52/61/2 51/62/2 50/63/2 49/64/2 48/65/2 47/66/2 46/67/2 45/68/2 44/69/2 43/70/2 42/71/2 41/72/2
f 36/73/3 35/74/3 71/75/3 72/76/3
f 5/77/4 1/78/4 37/79/4 41/80/4
f 19/81/5 18/82/5 54/83/5 55/84/5
f 9/85/4 8/86/4 44/87/4 45/88/4
f 26/89/3 25/90/3 61/91/3 62/92/3
f 33/93/4 32/94/4 68/95/4 69/96/4
f 16/97/6 15/98/6 51/99/6 52/100/6
f 6/101/6 5/102/6 41/103/6 42/104/6
f 23/105/5 22/106/5 58/107/5 59/108/5
f 13/109/5 12/110/5 48/111/5 49/112/5
f 30/113/3 29/114/3 65/115/3 66/116/3
f 3/117/4 36/118/4 72/119/4 39/120/4
f 20/121/3 19/122/3 55/123/3 56/124/3
f 1/125/6 2/126/6 38/127/6 37/128/6
f 10/129/6 9/130/6 45/131/6 46/132/6
f 27/133/4 26/134/4 62/135/4 63/136/4
f 17/137/5 16/138/5 52/139/5 53/140/5
f 34/141/3 33/142/3 69/143/3 70/144/3
f 7/145/4 6/146/4 42/147/4 43/148/4
f 24/149/3 23/150/3 59/151/3 60/152/3
f 31/153/4 30/154/4 66/155/4 67/156/4
f 14/157/6 13/158/6 49/159/6 50/160/6
f 2/161/4 4/162/4 40/163/4 38/164/4
f 21/165/5 20/166/5 56/167/5 57/168/5
f 11/169/4 10/170/4 46/171/4 47/172/4
f 28/173/3 27/174/3 63/175/3 64/176/3
f 18/177/6 17/178/6 53/179/6 54/180/6
f 35/181/4 34/182/4 70/183/4 71/184/4
f 8/185/6 7/186/6 43/187/6 44/188/6
f 25/189/5 24/190/5 60/191/5 61/192/5
f 15/193/5 14/194/5 50/195/5 51/196/5
f 32/197/3 31/198/3 67/199/3 68/200/3
f 22/201/3 21/202/3 57/203/3 58/204/3
f 4/205/6 3/206/6 39/207/6 40/208/6
f 29/209/4 28/210/4 64/211/4 65/212/4
f 12/213/6 11/214/6 47/215/6 48/216/6
